<svg width="153" height="153" viewBox="0 0 153 153" fill="none" xmlns="http://www.w3.org/2000/svg">
<rect x="102" y="76.5" width="25.5" height="44.625" rx="3" fill="url(#paint0_linear_53_281)" stroke="url(#paint1_linear_53_281)" stroke-width="2" stroke-linejoin="round"/>
<rect x="25.5" y="76.5" width="25.5" height="44.625" rx="3" fill="url(#paint2_linear_53_281)" stroke="url(#paint3_linear_53_281)" stroke-width="2" stroke-linejoin="round"/>
<path d="M23.9062 83.1937V102.319" stroke="url(#paint4_linear_53_281)" stroke-width="2" stroke-linecap="round" stroke-linejoin="round"/>
<path d="M129.094 83.1937V102.319" stroke="url(#paint5_linear_53_281)" stroke-width="2" stroke-linecap="round" stroke-linejoin="round"/>
<path d="M125.269 83.1937C125.269 67.9769 120.181 53.3834 111.125 42.6235C102.069 31.8636 89.7856 25.8187 76.9781 25.8187C64.1707 25.8187 51.8878 31.8636 42.8315 42.6235C33.7753 53.3834 28.6875 67.9769 28.6875 83.1937" stroke="url(#paint6_linear_53_281)" stroke-width="4" stroke-linecap="round" stroke-linejoin="round"/>
<defs>
<linearGradient id="paint0_linear_53_281" x1="114.75" y1="76.5" x2="114.75" y2="121.125" gradientUnits="userSpaceOnUse">
<stop stop-color="#23FF39"/>
<stop offset="1" stop-color="#15FFBD"/>
</linearGradient>
<linearGradient id="paint1_linear_53_281" x1="114.75" y1="76.5" x2="114.75" y2="121.125" gradientUnits="userSpaceOnUse">
<stop stop-color="#23FF39"/>
<stop offset="1" stop-color="#15FFBD"/>
</linearGradient>
<linearGradient id="paint2_linear_53_281" x1="38.25" y1="76.5" x2="38.25" y2="121.125" gradientUnits="userSpaceOnUse">
<stop stop-color="#23FF39"/>
<stop offset="1" stop-color="#15FFBD"/>
</linearGradient>
<linearGradient id="paint3_linear_53_281" x1="38.25" y1="76.5" x2="38.25" y2="121.125" gradientUnits="userSpaceOnUse">
<stop stop-color="#23FF39"/>
<stop offset="1" stop-color="#15FFBD"/>
</linearGradient>
<linearGradient id="paint4_linear_53_281" x1="24.4062" y1="83.1937" x2="24.4062" y2="102.319" gradientUnits="userSpaceOnUse">
<stop stop-color="#23FF39"/>
<stop offset="1" stop-color="#15FFBD"/>
</linearGradient>
<linearGradient id="paint5_linear_53_281" x1="129.594" y1="83.1937" x2="129.594" y2="102.319" gradientUnits="userSpaceOnUse">
<stop stop-color="#23FF39"/>
<stop offset="1" stop-color="#15FFBD"/>
</linearGradient>
<linearGradient id="paint6_linear_53_281" x1="76.9781" y1="140.569" x2="76.9781" y2="25.8187" gradientUnits="userSpaceOnUse">
<stop stop-color="#23FF39"/>
<stop offset="1" stop-color="#15FFBD"/>
</linearGradient>
</defs>
</svg>
